# xmcd
#
# Track frame offsets:
# 150
# 44695
# 72047
# 93795
# 119515
# 136352
# 149116
#
# Disc length: 2295 seconds
#
#
# Revision: 0
# Processed by: cddbd v1.5.2PL0 Copyright (c) Steve Scherf et al.
# Submitted via: FreeRIP 2.943 
#
DISCID=6a08f507
DTITLE=wildildlife - live on wfmu
DYEAR=2008
DGENRE=New Age
TTITLE0=metal
TTITLE1=grinder
TTITLE2=kross
TTITLE3=violent
TTITLE4=shinning
TTITLE5=latace
TTITLE6=untitled
EXTD=brian turner's tuesday show, april 8th 2008
EXTT0=
EXTT1=
EXTT2=
EXTT3=
EXTT4=
EXTT5=
EXTT6=
PLAYORDER=
